<svg xmlns="http://www.w3.org/2000/svg" xml:space="preserve" viewBox="0 0 167.3 45.4"><script/><script/><script/><script/><script/><script/><script/><script/><script/><script/><script/><script/><script/><path fill="#004780" d="M78.6 10.9h9v18h-9zM75.7 10.9H54.3l-1.7 2.7v.2h7.9v15h9v-15h7.9v-.2zM90.6 10.9h21.3l1.7 2.7v.2h-7.9v15h-8.9v-15h-7.9v-.2zM116.5 22.7l3.5-6.9 3.2 6.9h-6.7zm8.2 2.8 1.7 3.3h9.7v-.2l-9.4-17.7h-9l-10.3 17.7v.2h6.1l1.7-3.3h9.5zM141.3 10.9l14 9.5v-9.5h5v17.9h-4.8l-13.7-9.2v9.2H137V10.9z"/><path fill="gray" d="M16.8 12.9c6.3-2.6 12.7-4.4 18.5-5.1.4.3.7.6 1.1 1-5.8 1.1-12.3 3-18.9 5.7-6.6 2.7-12.6 5.9-17.4 9.3 0-.5 0-1 .1-1.4 4.5-3.6 10.3-6.9 16.6-9.5M22.7 27c7.4-3.1 14.5-6.2 20-8.9.3.9.5 1.7.6 2.6-5.2 3.2-12 6.7-19.3 9.7-7.3 3-14.5 5.4-20.5 6.8-.5-.7-1-1.5-1.4-2.3 5.9-2 13.1-4.8 20.6-7.9M19.3 18.7c7.3-3 14.5-5.4 20.5-6.8.5.7 1 1.5 1.4 2.3-5.8 2-13 4.8-20.4 7.9-7.4 3.1-14.5 6.2-20 8.9-.3-.9-.5-1.7-.6-2.6 5-3.2 11.8-6.7 19.1-9.7M28.6 41.2c4.1-1.7 8.1-3.8 11.5-6.2-.3.5-.5.9-.8 1.4-3.1 2.2-6.6 4.2-10.3 5.7-3.7 1.5-7.5 2.6-11.3 3.3-.5-.1-1.1-.3-1.6-.4 4.1-.8 8.3-2 12.5-3.8M25.9 34.7c6.6-2.7 12.6-5.9 17.4-9.3 0 .5 0 1-.1 1.4-4.6 3.6-10.3 6.9-16.7 9.5-6.3 2.6-12.7 4.4-18.5 5.1-.4-.3-.7-.6-1.1-1 5.9-1.1 12.4-3 19-5.7M14.4 7c3.7-1.5 7.5-2.6 11.3-3.3.5.1 1 .3 1.6.4-4.1.8-8.4 2.1-12.5 3.8-4.1 1.7-8.1 3.8-11.5 6.2.3-.5.5-1 .8-1.4 3.1-2.2 6.6-4.1 10.3-5.7"/><path fill="#004780" d="M45.1 9.4c-.6-.8-1.2-1.5-1.8-2.2-5.9.9-12.9 3-20.3 6-7.3 3-13.8 6.6-18.6 10.1 0 1 .1 1.9.3 2.9 5-3.2 11.9-6.7 19.6-9.9 7.7-3.3 15-5.6 20.8-6.9M34.6 41.1c-4 1.7-8 2.8-11.8 3.4 4.1.8 8.5.4 12.7-1.3 4.2-1.7 7.5-4.6 9.9-8-3.2 2.2-6.8 4.3-10.8 5.9M19.1 3.8c4-1.7 8-2.8 11.8-3.4-4.1-.8-8.5-.4-12.6 1.3-4.2 1.7-7.5 4.6-9.9 8 3.1-2.2 6.8-4.3 10.7-5.9M30.7 31.8c7.3-3 13.8-6.6 18.6-10.1 0-1-.1-1.9-.3-2.9-5 3.2-11.8 6.7-19.6 9.9-7.7 3.2-15 5.5-20.8 6.9.6.8 1.2 1.5 1.8 2.2 5.9-1 13-3 20.3-6"/><g fill="gray"><path d="m59.7 32.7-.2 1.6c-.8-.4-1.5-.5-2.3-.5-2.2 0-3.5 1.5-3.5 3.4s1.3 3.3 3.6 3.3c.8 0 1.8-.2 2.3-.4l.1 1.6c-.7.2-1.5.3-2.3.3-3.4 0-5.8-1.5-5.8-4.7s2.2-5 5.8-5c.7 0 1.6.1 2.3.4zM60.9 41.8v-9.4h6.2v1.5H63v2.3h3.7v1.5H63v2.6h4.1v1.5h-6.2zM78.6 41.8v-7.7l-2.8 7.7h-2L71 34.1v7.7h-2v-9.4h3.4l2.5 7.1 2.5-7.1h3.4v9.4h-2.2zM82.6 41.8v-9.4h6.2v1.5h-4.1v2.3h3.7v1.5h-3.7v2.6h4.1v1.5h-6.2zM96.6 41.8l-4-7v7h-2v-9.4h2.6l4 7v-7h2v9.4h-2.6zM105.1 33.9v7.9H103v-7.9h-3v-1.5h8.1v1.5h-3zM118 42c-3.4 0-5.8-1.5-5.8-4.7s2.2-5 5.8-5c1.2 0 2.2.1 3.1.4l-.1 1.6c-.8-.3-1.9-.5-2.7-.5-2.5 0-3.8 1.5-3.8 3.4s1.3 3.3 3.6 3.3c.6 0 1 0 1.4-.1V38h-2.2v-1.5h4.2v5c-1.2.3-2.3.5-3.5.5zM128.6 41.8l-1.3-2.9c-.3-.7-.6-1-1.5-1h-.7v3.9H123v-9.4h2.3c2.2 0 4.9-.1 4.9 2.5 0 1.1-.8 2-2.2 2.2.6 0 .9.5 1.1 1l1.7 3.7h-2.2zm-2.8-7.9h-.7v2.5h.7c1 0 2.2-.1 2.2-1.3.1-1.1-1.1-1.2-2.2-1.2zM136.6 42c-3.4 0-5.1-2-5.1-4.9 0-2.9 1.8-4.8 5.1-4.8s5.1 2 5.1 4.8c.1 2.9-1.7 4.9-5.1 4.9zm-2.9-4.9c0 1.7.8 3.4 2.9 3.4s2.9-1.7 2.9-3.4c0-1.6-.9-3.3-2.9-3.3s-2.9 1.7-2.9 3.3zM147.5 42c-2.7 0-4.3-1-4.3-3.5v-6h2.1v5.4c0 1.6.6 2.6 2.2 2.6s2.2-1 2.2-2.6v-5.4h2.1v6c0 2.5-1.6 3.5-4.3 3.5zM156.6 38.3h-.9v3.6h-2.1v-9.4h2.7c2.3 0 4.4.6 4.4 2.8-.1 2.2-1.9 3-4.1 3zm-.2-4.4h-.7v2.9h.7c1 0 2-.3 2-1.4 0-1.1-.9-1.5-2-1.5z"/></g></svg>