<?xml version="1.0" encoding="UTF-8" standalone="no"?>
<svg
   xmlns:svg="http://www.w3.org/2000/svg"
   xmlns="http://www.w3.org/2000/svg"
   version="1.0"
   width="659"
   height="186"
   viewBox="-0.945 -0.682 659 186"
   id="svg2920"
   xml:space="preserve">
	<defs
   id="defs2922">
	</defs>
	<g
   transform="matrix(0.9847897,0,0,0.9459289,4,4.000346)"
   id="g2924">
		<rect
   width="36.542999"
   height="73.070999"
   x="324.95099"
   y="73.086998"
   id="rect2926"
   style="fill:#004381" /> 
		<polygon
   points="312.871,73.092 225.879,73.092 218.994,84.137 218.994,85.041 251.152,85.041 251.152,146.159 287.695,146.159 287.695,85.041 319.824,85.041 319.824,84.137 312.871,73.092 "
   id="polygon2928"
   style="fill:#004381" />
		<polygon
   points="373.574,73.092 460.566,73.092 467.441,84.137 467.441,85.041 435.293,85.041 435.293,146.159 398.75,146.159 398.75,85.041 366.621,85.041 366.621,84.137 373.574,73.092 "
   id="polygon2930"
   style="fill:#004381" />
		<path
   d="M 512.393,132.843 L 519.336,146.163 L 558.799,146.163 L 558.799,145.245 L 520.576,73.082 L 483.77,73.082 L 441.875,145.245 L 441.875,146.163 L 466.729,146.163 L 473.565,132.843 L 512.393,132.843 z M 478.945,121.237 L 493.34,93.234 L 506.494,121.237 L 478.945,121.237 z"
   id="path2932"
   style="fill:#004381" />
		<polygon
   points="579.98,73.092 637.129,111.901 637.129,73.092 657.451,73.092 657.451,146.159 637.949,146.159 582.227,108.708 582.227,146.159 562.451,146.159 562.451,73.092 579.98,73.092 "
   id="polygon2934"
   style="fill:#004381" />
		<g
   id="g2936">
			<path
   d="M 68.545,52.428 C 94.356,41.74 120.352,34.669 143.897,31.837 C 145.411,33.067 146.758,34.449 148.174,35.768 C 124.531,40.109 98.184,48.009 71.319,59.137 C 44.375,70.299 20.127,83.356 0.332,97.018 C 0.41,95.06 0.488,93.097 0.684,91.139 C 19.287,76.53 42.676,63.151 68.545,52.428"
   id="path2938"
   style="fill:#9c9d9f;fill-rule:evenodd" />
			<path
   d="M 92.393,110.026 C 122.676,97.477 151.485,84.694 173.946,73.835 C 175.02,77.365 175.938,80.935 176.583,84.533 C 155.509,97.707 127.755,111.667 98.165,123.932 C 68.575,136.173 39.083,145.934 14.854,151.535 C 12.754,148.537 10.87,145.353 9.151,142.106 C 32.607,133.922 62.012,122.604 92.393,110.026"
   id="path2940"
   style="fill:#9c9d9f;fill-rule:evenodd" />
			<path
   d="M 78.418,76.261 C 108.037,64 137.529,54.24 161.719,48.659 C 163.819,51.657 165.694,54.831 167.412,58.078 C 143.887,66.291 114.482,77.609 84.18,90.158 C 53.926,102.692 25.127,115.48 2.627,126.349 C 1.543,122.828 0.635,119.259 9.3258734e-15,115.651 C 21.064,102.467 48.838,88.522 78.418,76.261"
   id="path2942"
   style="fill:#9c9d9f;fill-rule:evenodd" />
			<path
   d="M 116.357,167.858 C 133.212,160.876 149.14,152.296 163.3,142.707 C 162.226,144.606 161.22,146.55 159.999,148.366 C 147.206,157.468 133.065,165.309 117.899,171.589 C 102.694,177.888 87.186,182.341 71.756,184.948 C 69.588,184.518 67.488,183.859 65.36,183.268 C 82.178,180.036 99.502,174.84 116.357,167.858"
   id="path2944"
   style="fill:#9c9d9f;fill-rule:evenodd" />
			<path
   d="M 105.244,141.046 C 132.178,129.899 156.435,116.837 176.24,103.136 C 176.162,105.099 176.084,107.067 175.888,109.03 C 157.236,123.669 133.837,137.057 108.027,147.76 C 82.187,158.458 56.191,165.538 32.705,168.365 C 31.191,167.139 29.844,165.748 28.418,164.429 C 52.031,160.099 78.369,152.189 105.244,141.046"
   id="path2946"
   style="fill:#9c9d9f;fill-rule:evenodd" />
			<path
   d="M 58.672,28.6 C 73.838,22.321 89.365,17.872 104.863,15.25 C 107.002,15.67 109.092,16.334 111.201,16.92 C 94.424,20.152 77.099,25.343 60.215,32.32 C 43.35,39.313 27.432,47.902 13.271,57.482 C 14.345,55.573 15.371,53.61 16.601,51.784 C 29.355,42.711 43.486,34.894 58.672,28.6"
   id="path2948"
   style="fill:#9c9d9f;fill-rule:evenodd" />
			<path
   d="M 183.574,38.063 C 181.269,34.845 178.779,31.803 176.123,28.961 C 152.305,32.721 123.564,40.982 93.652,53.375 C 63.75,65.753 37.578,80.255 18.076,94.425 C 18.203,98.321 18.603,102.223 19.238,106.134 C 39.795,93.195 67.52,79.025 98.896,66.032 C 130.273,53.043 159.883,43.454 183.574,38.063"
   id="path2950"
   style="fill:#004381;fill-rule:evenodd" />
			<path
   d="M 140.85,167.316 C 124.629,174.025 108.379,178.595 92.745,181.164 C 109.542,184.294 127.393,182.785 144.337,175.754 C 161.3,168.737 174.991,157.175 184.659,143.093 C 171.787,152.335 157.061,160.592 140.85,167.316"
   id="path2952"
   style="fill:#004381;fill-rule:evenodd" />
			<path
   d="M 77.92,15.397 C 94.141,8.678 110.391,4.118 126.025,1.549 C 109.228,-1.581 91.377,-0.062 74.423,6.959 C 57.47,13.985 43.778,25.528 34.11,39.605 C 46.992,30.377 61.709,22.116 77.92,15.397"
   id="path2954"
   style="fill:#004381;fill-rule:evenodd" />
			<path
   d="M 125.117,129.333 C 155.01,116.94 181.181,102.453 200.693,88.283 C 200.566,84.382 200.166,80.485 199.521,76.574 C 178.974,89.513 151.24,103.683 119.873,116.672 C 88.506,129.665 58.877,139.255 35.195,144.646 C 37.5,147.864 39.98,150.906 42.646,153.743 C 66.455,149.972 95.215,141.725 125.117,129.333"
   id="path2956"
   style="fill:#004381;fill-rule:evenodd" />
		</g>
	</g>
</svg>